<svg xmlns="http://www.w3.org/2000/svg" width="148" height="80" fill="none"><g filter="url(#a)"><rect width="148" height="80" fill="#fff" fill-opacity=".05" rx="12"/><rect width="147" height="79" x=".5" y=".5" stroke="#fff" stroke-opacity=".1" rx="11.5"/><g fill="#fff" fill-opacity=".8" clip-path="url(#b)"><path d="M95.34 48.246c-1.428.327-5.184.515-5.184.515l-.476 1.487s1.873-.159 3.24-.02c0 0 .447-.05.496.505.02.516-.04 1.07-.04 1.07s-.029.338-.505.417c-.515.09-4.044.218-4.044.218l-.574 1.933s-.209.446.267.317c.446-.119 4.143-.813 4.629-.714.515.13 1.09.813.922 1.448-.199.773-3.886 3.132-6.136 2.963 0 0-1.18.08-2.18-1.516-.932-1.517.357-4.401.357-4.401s-.585-1.348-.159-1.794c0 0 .258-.228.991-.288l.902-1.873s-1.03.07-1.645-.684c-.575-.723-.615-1.05-.178-1.248.465-.229 4.757-1.012 7.71-.912 0 0 1.031-.1 1.914 1.685-.01 0 .426.723-.308.892ZM84.227 55.44c-.376.892-1.377 1.844-2.616 1.25-1.23-.596-3.182-4.59-3.182-4.59s-.743-1.486-.882-1.457c0 0-.158-.287-.258 1.338-.099 1.626.02 4.788-.624 5.283-.614.496-1.358.297-1.744-.287-.347-.575-.496-1.943-.308-4.342.228-2.398.783-4.955 1.497-5.758.714-.793 1.288-.218 1.507-.01 0 0 .951.862 2.527 3.4l.278.465s1.427 2.399 1.575 2.39c0 0 .12.108.218.029.15-.04.09-.813.09-.813s-.298-2.607-1.596-7.027c0 0-.198-.555-.06-1.07.13-.526.655-.278.655-.278s2.022 1.01 2.993 4.302c.961 3.32.307 6.283-.07 7.175Zm-9.93-8.454c-.17.337-.268.822-1.12.951 0 0-8.158.555-8.544 1.13 0 0-.288.337.158.436.446.09 2.29.337 3.182.387.951.01 4.162.04 5.312 1.477 0 0 .684.684.654 2.23-.03 1.586-.307 2.14-.921 2.716-.645.535-6.175 3.013-9.743-.793 0 0-1.646-1.834.564-3.222 0 0 1.596-.961 5.65.169 0 0 1.23.446 1.17.892-.07.476-1.011.981-2.38.952-1.327-.04-2.299-.674-2.11-.575.178.069-1.427-.773-1.923-.199-.496.526-.377.853.109 1.18 1.239.704 6.026.456 7.453-1.13 0 0 .565-.644-.297-1.17-.862-.495-3.33-.792-4.292-.842-.921-.05-4.35.01-4.846-.902 0 0-.496-.615.05-2.359.574-1.824 4.568-2.527 6.293-2.686 0 0 4.748-.168 5.62.803-.01 0 .109.228-.04.555ZM60.817 57.68c-.575.427-1.794.238-2.141-.237-.347-.427-.466-2.122-.397-4.778.07-2.686.129-6.016.704-6.541.614-.536.991-.07 1.229.297.258.357.565.753.634 1.596.06.842.258 5.263.258 5.263s.258 3.984-.287 4.4Zm1.239-14.252c-1.676.555-2.825.366-3.797-.05-.426.743-.674.971-1 1.021-.476.05-.903-.714-.982-.961-.08-.189-.307-.506-.03-1.26-.951-.852-1.02-2.001-.862-2.774.238-.892 1.844-4.282 6.73-4.679 0 0 2.389-.178 2.795 1.1h.07s2.319.01 2.27 2.072c-.03 2.071-2.578 4.648-5.195 5.53Zm-4.56-4.59c-.495.794-.515 1.27-.287 1.596.565-.862 1.596-2.22 3.112-3.25-1.17.098-2.15.604-2.825 1.655Zm6.75-1.328c-1.536.228-3.915 2.29-5.045 3.975 1.735.317 4.797.198 6.155-2.567-.01 0 .644-1.715-1.11-1.407Zm41.708 15.968c-.922 1.606-3.509 4.956-6.958 4.173-1.14 2.765-2.092 5.55-2.637 9.733 0 0-.119.813-.793.525-.664-.238-1.774-1.348-1.992-2.884-.238-2.022.664-5.442 2.498-9.357-.535-.872-.902-2.12-.585-3.895 0 0 .466-3.29 3.766-6.264 0 0 .397-.347.625-.238.257.11.139 1.18-.07 1.695-.208.515-1.685 3.073-1.685 3.073s-.921 1.724-.664 3.082c1.735-2.666 5.68-8.048 8.128-6.353.822.585 1.199 1.863 1.199 3.24-.01 1.22-.297 2.508-.832 3.47Zm-.714-4.222s-.139-1.06-1.17.109c-.892.98-2.497 2.834-3.796 5.342 1.358-.149 2.666-.892 3.063-1.269.644-.575 2.141-2.12 1.903-4.182Zm-48.12 1.348c-.189 2.398-1.11 6.432-7.642 8.424-4.312 1.299-8.385.674-10.605.11-.05.881-.15 1.258-.288 1.407-.188.188-1.596 1-2.369-.149-.347-.545-.525-1.536-.624-2.418-4.996-2.3-7.295-5.61-7.384-5.759-.11-.109-1.25-1.298-.11-2.755 1.071-1.319 4.57-2.637 7.722-3.172.109-2.696.426-4.728.803-5.66.456-1.08 1.03-.108 1.526.625.416.545.664 2.894.684 4.767 2.061-.099 3.28.05 5.58.466 2.993.545 4.995 2.072 4.817 3.806-.129 1.705-1.695 2.409-2.29 2.458-.624.05-1.595-.396-1.595-.396-.664-.317-.05-.595.753-.942.872-.426.674-.862.674-.862-.327-.952-4.213-1.616-8.078-1.616-.02 2.131.09 5.67.139 7.731 2.706.516 4.728.417 4.728.417s9.872-.278 10.169-6.582c.307-6.313-9.842-12.37-17.345-14.292-7.493-1.962-11.736-.595-12.102-.406-.397.198-.03.257-.03.257s.406.06 1.11.298c.743.238.169.624.169.624-1.279.407-2.716.149-2.994-.436-.277-.585.189-1.11.724-1.863.535-.793 1.12-.764 1.12-.764 9.267-3.21 20.556 2.597 20.556 2.597 10.576 5.362 12.38 11.646 12.181 14.085Zm-27.97-.327c-1.051.515-.328 1.258-.328 1.258 1.973 2.121 4.4 3.45 6.71 4.272.268-3.657.228-4.946.258-6.79-3.608.248-5.69.823-6.64 1.26Zm96.429-.753v1.309a.512.512 0 0 1-.515.515h-6.235c0 .327.01.615.01.882 0 1.933-.079 3.509-.267 5.283a.515.515 0 0 1-.506.466h-1.348a.48.48 0 0 1-.476-.535c.189-1.765.278-3.32.278-5.214 0-.277 0-.565-.01-.882h-6.165a.512.512 0 0 1-.515-.515v-1.309c0-.287.228-.515.515-.515h6.076a45.744 45.744 0 0 0-.803-6.264.456.456 0 0 1 .089-.357.418.418 0 0 1 .327-.158h1.457c.228 0 .416.158.466.386a50.35 50.35 0 0 1 .793 6.393h6.314c.277 0 .515.238.515.515Z"/><path d="M117.095 39.147c-3.221-7.92-8.662-14.669-15.739-19.525-7.245-4.966-15.74-7.593-24.56-7.593-14.59 0-28.13 7.246-36.208 19.387a.508.508 0 0 0-.059.446c.05.159.168.268.317.317l1.13.387a.653.653 0 0 0 .723-.248A41.499 41.499 0 0 1 57.21 19.205a41.292 41.292 0 0 1 19.575-4.946 41.036 41.036 0 0 1 23.035 7.038 41.264 41.264 0 0 1 14.936 18.128.595.595 0 0 0 .545.366h1.348a.453.453 0 0 0 .387-.208.433.433 0 0 0 .059-.436Zm-74.92-6.888h.02-.02Zm72.849 7.354c.03.02.059.04.089.05-.03-.02-.059-.03-.089-.05Z"/></g></g><defs><clipPath id="b"><path fill="#fff" d="M22.41 12h103.18v56H22.41z"/></clipPath><filter id="a" width="148" height="84" x="0" y="0" color-interpolation-filters="sRGB" filterUnits="userSpaceOnUse"><feFlood flood-opacity="0" result="BackgroundImageFix"/><feBlend in="SourceGraphic" in2="BackgroundImageFix" result="shape"/><feColorMatrix in="SourceAlpha" result="hardAlpha" values="0 0 0 0 0 0 0 0 0 0 0 0 0 0 0 0 0 0 127 0"/><feOffset dy="4"/><feGaussianBlur stdDeviation="6"/><feComposite in2="hardAlpha" k2="-1" k3="1" operator="arithmetic"/><feColorMatrix values="0 0 0 0 1 0 0 0 0 1 0 0 0 0 1 0 0 0 0.08 0"/><feBlend in2="shape" result="effect1_innerShadow_158_477"/></filter></defs></svg>