<svg xmlns="http://www.w3.org/2000/svg" width="148" height="80" fill="none"><g filter="url(#a)"><rect width="148" height="80" fill="#fff" fill-opacity=".05" rx="12"/><rect width="147" height="79" x=".5" y=".5" stroke="#fff" stroke-opacity=".1" rx="11.5"/><path fill="#fff" fill-opacity=".05" d="M113.653 24H34.347v32h79.306V24Z"/><path fill="#fff" fill-opacity=".8" d="M101.459 31.457v-4.898H87.864l-2.236 16.363-2.213-16.363h-4.902l.55 4.366c-.567-1.118-2.574-4.366-6.99-4.366h-4.91l-.019 23.851-3.573-23.85-6.42-.004-3.697 24.711.002-24.709H47.31L45.095 40.44l-2.157-13.88h-6.147v26.866h4.841v-12.95l2.202 12.949h2.573l2.172-12.95v12.95h9.331l.566-4.134h3.757l.565 4.134 9.161.006h.008v-.006h.012v-8.721l1.123-.164 2.325 8.89h4.738l-.001-.006h.014l-3.053-10.42c1.547-1.146 3.292-4.058 2.828-6.843v-.002c.005.038 2.88 17.283 2.88 17.283l5.636-.017 3.852-24.352v24.352h9.139v-4.832h-4.338v-6.161h4.338v-4.906h-4.338v-6.068h4.337v-.001ZM59.046 45.03l1.329-11.486 1.38 11.486h-2.71Zm14.07-5.304a2.61 2.61 0 0 1-1.139.273v-8.643l.024-.001c.38-.002 3.206.115 3.206 4.276-.001 2.175-.962 3.547-2.09 4.095Zm38.095 8.863v4.831h-8.915V26.554h4.801v22.034h4.114v.001Z"/></g><defs><filter id="a" width="148" height="84" x="0" y="0" color-interpolation-filters="sRGB" filterUnits="userSpaceOnUse"><feFlood flood-opacity="0" result="BackgroundImageFix"/><feBlend in="SourceGraphic" in2="BackgroundImageFix" result="shape"/><feColorMatrix in="SourceAlpha" result="hardAlpha" values="0 0 0 0 0 0 0 0 0 0 0 0 0 0 0 0 0 0 127 0"/><feOffset dy="4"/><feGaussianBlur stdDeviation="6"/><feComposite in2="hardAlpha" k2="-1" k3="1" operator="arithmetic"/><feColorMatrix values="0 0 0 0 1 0 0 0 0 1 0 0 0 0 1 0 0 0 0.08 0"/><feBlend in2="shape" result="effect1_innerShadow_158_473"/></filter></defs></svg>