<svg xmlns="http://www.w3.org/2000/svg" width="148" height="80" fill="none"><g filter="url(#a)"><rect width="148" height="80" fill="#fff" fill-opacity=".05" rx="12"/><rect width="147" height="79" x=".5" y=".5" stroke="#fff" stroke-opacity=".1" rx="11.5"/><g clip-path="url(#b)"><path fill="#fff" fill-opacity=".8" d="M26.526 28.01h21.793l-.924 6.843H25.639l.887-6.842Zm-1.28 9.358h21.82l-.672 5.566H32.756l-.355 2.662h13.664l-.848 6.355h-21.87l1.9-14.583Zm23.428-2.515s.152-2.334.76-3.549c.57-1.142 1.33-1.968 2.608-2.661.76-.39 2.115-.632 2.115-.632h39.257s1.646.024 2.355.304c.76.303 1.862.753 2.444 2.114.57 1.3.456 1.726.456 3.026 0 1.276-.038 1.398-.038 1.398H48.674Zm-.355 2.576h20.085s1.785 0 2.608.474c.861.547 1.254 1.215 1.507 2.273.24 1.057-.43 6.392-.823 7.692-.43 1.276-.937 2.48-3.014 3.476-1.861.911-4.685.607-4.685.607h-17.35l1.027-6.355H63.92l.329-2.698H53.043s-1.824.243-3.533-1.179c-1.038-.85-1.153-2.15-1.216-2.722-.076-.328.025-1.568.025-1.568Zm26.125 0h23.693s-.215 2.625-.86 3.56c-.647.973-1.217 1.495-2.293 1.726-1.102.243-2.748.243-2.748.243H81.928l-1.076 8.993h-8.27l1.862-14.522Zm25.302-2.516h24.617s.469-2.065.216-3.366c-.254-1.3-.861-2.175-1.862-2.807-1.317-.887-3.723-.73-3.685-.73h-18.286l-1 6.903Zm-.317 2.516h8.155l-1.861 14.522h-8.092l1.798-14.522Zm16.387.06h8.079l-1.862 14.462h-8.041l1.824-14.461Z"/></g></g><defs><clipPath id="b"><path fill="#fff" d="M23.333 28h101.333v24H23.333z"/></clipPath><filter id="a" width="148" height="84" x="0" y="0" color-interpolation-filters="sRGB" filterUnits="userSpaceOnUse"><feFlood flood-opacity="0" result="BackgroundImageFix"/><feBlend in="SourceGraphic" in2="BackgroundImageFix" result="shape"/><feColorMatrix in="SourceAlpha" result="hardAlpha" values="0 0 0 0 0 0 0 0 0 0 0 0 0 0 0 0 0 0 127 0"/><feOffset dy="4"/><feGaussianBlur stdDeviation="6"/><feComposite in2="hardAlpha" k2="-1" k3="1" operator="arithmetic"/><feColorMatrix values="0 0 0 0 1 0 0 0 0 1 0 0 0 0 1 0 0 0 0.08 0"/><feBlend in2="shape" result="effect1_innerShadow_158_496"/></filter></defs></svg>