<svg xmlns="http://www.w3.org/2000/svg" width="148" height="80" fill="none"><g filter="url(#a)"><rect width="148" height="80" fill="#fff" fill-opacity=".05" rx="12"/><rect width="147" height="79" x=".5" y=".5" stroke="#fff" stroke-opacity=".1" rx="11.5"/><g fill="#fff" fill-opacity=".8" clip-path="url(#b)"><path d="M20.537 24v31.996h21.83V24h-21.83Zm18.672 28.775H23.683V27.223h15.526v25.552Zm16.166-17.619h-.03c-1.742-2.864-3.5-5.393-5.273-7.939H48.72v11.137h1.493v-7.987h.015c1.759 2.88 3.516 5.426 5.29 7.987h1.353V27.217h-1.495v7.939Zm10.78 3.198-3.47-11.137h-1.554l-3.764 11.137h1.617l.95-3.039h3.28l.856 3.039h2.085Zm-5.74-4.408c.436-1.464.871-2.814 1.26-4.534h.032c.435 1.72.824 3.07 1.229 4.534h-2.521Zm7.497 4.408h1.866v-9.64h2.863v-1.497h-7.59v1.496h2.861v9.64Zm7.185-11.137h-1.85v11.137h1.85V27.217Zm5.757 11.327c2.846 0 4.62-2.593 4.62-5.918 0-3.118-1.961-5.6-4.62-5.6-2.66 0-4.621 2.482-4.621 5.6 0 3.326 1.773 5.918 4.62 5.918Zm0-9.927c1.85 0 2.628 1.957 2.628 4.01 0 2.131-.684 4.326-2.628 4.326-1.945 0-2.629-2.195-2.629-4.327 0-2.052.778-4.009 2.629-4.009Zm7.246 1.75h.018c1.757 2.88 3.514 5.426 5.287 7.987h1.353V27.217h-1.493v7.939h-.031c-1.741-2.864-3.5-5.393-5.273-7.939h-1.353v11.137H88.1v-7.987Zm9.721 4.948h3.283l.856 3.039h2.083l-3.468-11.137H99.02l-3.765 11.137h1.62l.946-3.039Zm1.744-5.903h.03c.436 1.72.825 3.07 1.23 4.534h-2.521c.436-1.464.87-2.814 1.261-4.534Zm10.56 7.446h-3.686v-9.64h-1.851v11.136h5.537v-1.496ZM53.854 51.09c-.39.207-.809.271-1.306.271-1.602 0-3.158-1.56-3.158-4.2 0-2.529 1.353-4.137 3.344-4.137.716 0 1.494.27 1.991.588l.606-1.32c-.621-.478-1.633-.859-2.644-.859-3.266 0-5.288 2.657-5.288 5.696 0 3.277 2.022 5.823 5.225 5.823 1.058 0 2.1-.285 3.097-.684v-4.6h-1.867v3.422Zm5.427-3.42h3.05v-1.495h-3.05V43.12h3.112v-1.495h-4.977v11.137h5.537v-1.497H59.28V47.67Zm8.867-6.236c-2.66 0-4.62 2.481-4.62 5.6 0 3.325 1.773 5.919 4.62 5.919 2.846 0 4.619-2.594 4.619-5.919 0-3.118-1.96-5.6-4.619-5.6Zm0 9.927c-1.945 0-2.629-2.195-2.629-4.327 0-2.053.777-4.01 2.63-4.01 1.85 0 2.627 1.956 2.627 4.01 0 2.132-.683 4.327-2.628 4.327Zm11.712-.271c-.388.207-.81.271-1.307.271-1.602 0-3.157-1.56-3.157-4.2 0-2.529 1.353-4.137 3.345-4.137.715 0 1.493.27 1.989.588l.607-1.32c-.621-.478-1.633-.859-2.645-.859-3.265 0-5.287 2.657-5.287 5.696 0 3.277 2.022 5.823 5.227 5.823 1.056 0 2.098-.285 3.095-.684v-4.6H79.86v3.422Zm9.862-6.25c0-2.166-1.292-3.215-3.375-3.215h-2.91v11.137h1.867v-4.2h.84l1.757 4.2h2.13l-2.191-4.615c1.196-.652 1.882-1.972 1.882-3.308Zm-3.64 2.29c-.188.015-.624.032-.779.047v-4.056h.826c1.103 0 1.724.65 1.724 1.797 0 1.495-.885 2.164-1.771 2.211Zm7.746-5.505-3.765 11.137h1.617l.949-3.04h3.282l.858 3.04h2.082l-3.469-11.137h-1.554Zm-.715 6.73c.435-1.465.87-2.817 1.259-4.534h.032c.434 1.717.823 3.07 1.229 4.534h-2.52Zm19.395-2.45h-3.873v-4.28h-1.851v11.137h1.851V47.4h3.873v5.363h1.866V41.656h-1.866v4.25Zm3.654 6.855h1.851V41.627h-1.851v11.136Zm8.384-1.399c-1.805 0-3.329-1.56-3.329-4.2 0-2.529 1.385-4.137 3.282-4.137.716 0 1.463.334 1.914.62l.591-1.35c-.638-.447-1.539-.86-2.504-.86-3.251 0-5.258 2.657-5.258 5.695 0 3.278 2.022 5.823 5.228 5.823.901 0 1.896-.366 2.456-.763l-.512-1.384a3.473 3.473 0 0 1-1.868.556Zm-22.196-9.736h-2.907v11.137h1.867v-4.2h.839c2.225 0 3.577-1.847 3.577-3.723 0-2.165-1.29-3.214-3.376-3.214Zm-.264 5.504c-.186.015-.636.03-.777.044V43.12h.839c1.09 0 1.712.651 1.712 1.797 0 1.496-.887 2.165-1.774 2.212Z"/></g></g><defs><clipPath id="b"><path fill="#fff" d="M20.537 24h106.927v32H20.537z"/></clipPath><filter id="a" width="148" height="84" x="0" y="0" color-interpolation-filters="sRGB" filterUnits="userSpaceOnUse"><feFlood flood-opacity="0" result="BackgroundImageFix"/><feBlend in="SourceGraphic" in2="BackgroundImageFix" result="shape"/><feColorMatrix in="SourceAlpha" result="hardAlpha" values="0 0 0 0 0 0 0 0 0 0 0 0 0 0 0 0 0 0 127 0"/><feOffset dy="4"/><feGaussianBlur stdDeviation="6"/><feComposite in2="hardAlpha" k2="-1" k3="1" operator="arithmetic"/><feColorMatrix values="0 0 0 0 1 0 0 0 0 1 0 0 0 0 1 0 0 0 0.08 0"/><feBlend in2="shape" result="effect1_innerShadow_158_492"/></filter></defs></svg>